<svg width="50" height="50" viewBox="0 0 50 50" fill="none" xmlns="http://www.w3.org/2000/svg">
<path d="M14.5833 25L13.4785 26.1048C12.8683 25.4946 12.8683 24.5054 13.4785 23.8952L14.5833 25ZM35.4167 23.4375C36.2796 23.4375 36.9792 24.1371 36.9792 25C36.9792 25.8629 36.2796 26.5625 35.4167 26.5625V23.4375ZM24.0215 32.2285C24.6317 32.8387 24.6317 33.8279 24.0215 34.4381C23.4113 35.0483 22.4221 35.0483 21.8119 34.4381L24.0215 32.2285ZM21.8119 15.5618C22.4221 14.9516 23.4113 14.9516 24.0215 15.5618C24.6317 16.172 24.6317 17.1613 24.0215 17.7715L21.8119 15.5618ZM14.5833 23.4375H35.4167V26.5625H14.5833V23.4375ZM21.8119 34.4381L13.4785 26.1048L15.6881 23.8952L24.0215 32.2285L21.8119 34.4381ZM13.4785 23.8952L21.8119 15.5618L24.0215 17.7715L15.6881 26.1048L13.4785 23.8952ZM7.8125 25C7.8125 34.4923 15.5077 42.1875 25 42.1875V45.3125C13.7817 45.3125 4.6875 36.2183 4.6875 25H7.8125ZM25 42.1875C34.4924 42.1875 42.1875 34.4923 42.1875 25H45.3125C45.3125 36.2183 36.2183 45.3125 25 45.3125V42.1875ZM42.1875 25C42.1875 15.5076 34.4924 7.8125 25 7.8125V4.6875C36.2183 4.6875 45.3125 13.7817 45.3125 25H42.1875ZM25 7.8125C15.5077 7.8125 7.8125 15.5076 7.8125 25H4.6875C4.6875 13.7817 13.7817 4.6875 25 4.6875V7.8125Z" fill="#063F87"/>
</svg>
