<svg width="40" height="40" viewBox="0 0 40 40" fill="none" xmlns="http://www.w3.org/2000/svg">
<g clip-path="url(#clip0_1045_2525)">
<path d="M37.564 25.8332C35.5646 23.8338 32.6637 22.9944 29.9132 23.597L27.2162 20.9001L35.4551 12.6611C35.456 12.6602 39.0628 9.05334 39.0628 9.05334C39.6631 8.45311 39.9936 7.65225 39.9936 6.79858C39.9936 5.94475 39.663 5.14397 39.0628 4.54373L35.4557 0.936466C34.8553 0.336232 34.0545 0.00560654 33.2008 0.00560654C32.347 0.00560654 31.5462 0.336153 30.9458 0.936544L19.0993 12.783L16.4023 10.0861C17.005 7.33576 16.1656 4.43467 14.1661 2.43529C11.9239 0.193107 8.66206 -0.571972 5.65347 0.438653C5.44409 0.509044 5.28597 0.682638 5.23542 0.897638C5.18488 1.11272 5.24917 1.33858 5.40542 1.49475L9.79691 5.88623L8.98136 8.9817L5.88566 9.79615L1.49425 5.40483C1.338 5.24858 1.11214 5.18428 0.89722 5.23483C0.68222 5.28529 0.508548 5.44334 0.438079 5.65272C-0.573327 8.66186 0.191595 11.9243 2.43425 14.1669C4.4337 16.1663 7.3348 17.0058 10.085 16.4031L11.4284 17.7464C11.5529 17.8709 11.7163 17.9333 11.8796 17.9333C12.0428 17.9333 12.2062 17.8711 12.3307 17.7464C12.58 17.4972 12.58 17.0931 12.3307 16.844L10.7341 15.2473C10.5732 15.0862 10.3386 15.0232 10.1182 15.082C7.70167 15.7272 5.10308 15.0309 3.33667 13.2645C1.69488 11.6227 0.989173 9.33483 1.383 7.09842L5.2423 10.9577C5.40277 11.1182 5.63644 11.1813 5.85581 11.1237L9.66581 10.1213C9.88824 10.0628 10.062 9.88912 10.1205 9.6667L11.0803 6.0235L13.5078 3.59608C15.0924 5.35162 15.6955 7.81756 15.081 10.1192C15.0221 10.3393 15.0852 10.574 15.2463 10.7351L18.1966 13.6854L3.79878 28.0835C3.78191 28.1004 3.76644 28.118 3.75183 28.1362C3.74816 28.1408 3.74495 28.1458 3.74136 28.1505C3.73066 28.1647 3.72034 28.179 3.71089 28.1938C3.7073 28.1994 3.70409 28.2052 3.70074 28.211C3.69206 28.2256 3.68394 28.2405 3.67667 28.2556C3.6737 28.2619 3.67081 28.268 3.668 28.2744C3.66113 28.2898 3.6548 28.3056 3.64917 28.3215C3.64784 28.3254 3.64589 28.3291 3.64456 28.333L0.0372978 39.1547C-0.0391085 39.384 0.0205009 39.6368 0.191438 39.8077C0.313079 39.9294 0.476126 39.9947 0.642688 39.9947C0.710188 39.9947 0.778313 39.984 0.844407 39.9619L11.6663 36.3547C11.6703 36.3533 11.674 36.3514 11.678 36.35C11.6939 36.3444 11.7094 36.3382 11.7248 36.3312C11.7312 36.3284 11.7374 36.3255 11.7437 36.3225C11.7588 36.3151 11.7735 36.3071 11.7881 36.2985C11.7939 36.2951 11.7996 36.2919 11.8053 36.2883C11.8201 36.2789 11.8346 36.2686 11.8486 36.2579C11.8534 36.2543 11.8583 36.2511 11.8629 36.2473C11.8811 36.2328 11.8989 36.2172 11.9157 36.2004L26.3138 21.8023L29.2641 24.7526C29.4254 24.9138 29.6601 24.9768 29.88 24.918C32.2968 24.2728 34.8952 24.9691 36.6615 26.7355C38.3028 28.3768 39.0086 30.664 38.6154 32.8998L34.7562 29.0405C34.5957 28.88 34.3618 28.8169 34.1423 28.8747L30.3324 29.8784C30.11 29.9369 29.9364 30.1107 29.8778 30.3331L28.9194 33.9762L26.491 36.4046C24.906 34.649 24.3025 32.1828 24.9171 29.8808C24.9758 29.6608 24.9129 29.4261 24.7519 29.265L23.1551 27.6683C22.9058 27.419 22.5018 27.419 22.2526 27.6683C22.0034 27.9175 22.0034 28.3215 22.2526 28.5707L23.596 29.914C22.9932 32.6644 23.8327 35.5655 25.8321 37.5648C25.8843 37.6171 25.9371 37.6683 25.9904 37.7189C26.0036 37.7349 26.0175 37.7505 26.0325 37.7655C26.0579 37.7908 26.0851 37.8129 26.1134 37.833C27.6639 39.248 29.6448 40 31.6787 39.9999C32.5682 39.9999 33.4682 39.856 34.3464 39.5608C34.5558 39.4905 34.7139 39.3169 34.7643 39.1017C34.8148 38.8867 34.7505 38.6608 34.5943 38.5047L30.2029 34.1133L31.0174 31.0176L34.113 30.202L38.5044 34.5935C38.6607 34.7497 38.8869 34.8142 39.1016 34.7635C39.3166 34.713 39.4903 34.5549 39.5607 34.3454C40.5711 31.3372 39.8061 28.0753 37.564 25.8332ZM10.5073 4.79193L7.09925 1.38373C9.03558 1.04311 11.0099 1.5274 12.5702 2.72904L10.5073 4.79193ZM31.8483 1.83881C32.2075 1.47959 32.6878 1.28178 33.2008 1.28178C33.7136 1.28178 34.194 1.47959 34.5532 1.83881L38.1604 5.44608C38.9062 6.19186 38.9062 7.40522 38.1604 8.15092L35.0044 11.3069L28.6923 4.99483L31.8483 1.83881ZM1.65167 38.3476L2.72527 35.1269L4.87238 37.274L1.65167 38.3476ZM6.22605 36.8228L3.17644 33.7733L4.52886 29.716L10.2832 35.4704L6.22605 36.8228ZM11.4645 34.8469L5.1523 28.5347L25.3849 8.30217L28.0898 11.0069L9.20964 29.8872C8.96042 30.1364 8.96042 30.5405 9.20964 30.7896C9.33417 30.9141 9.49753 30.9765 9.66081 30.9765C9.82409 30.9765 9.98746 30.9143 10.112 30.7896L28.9921 11.9096L30.3445 13.2619C30.4691 13.3865 30.6325 13.4489 30.7957 13.4489C30.959 13.4489 31.1224 13.3866 31.247 13.2619C31.4962 13.0127 31.4962 12.6087 31.247 12.3595L29.4435 10.556C29.4432 10.5558 26.2872 7.39975 26.2872 7.39975L27.7896 5.89733L34.1018 12.2094L11.4645 34.8469ZM32.9008 38.6162C30.9645 38.957 28.9898 38.4733 27.429 37.2718L29.4926 35.2082L32.9008 38.6162Z" fill="#C4C4C4"/>
<path d="M14.3449 11.6376C14.0956 11.3884 13.6916 11.3884 13.4424 11.6376L11.6376 13.4424C11.3884 13.6917 11.3884 14.0957 11.6376 14.3449C11.7621 14.4694 11.9255 14.5318 12.0888 14.5318C12.2521 14.5318 12.4154 14.4696 12.5399 14.3449L14.3448 12.54C14.5941 12.2909 14.5941 11.8868 14.3449 11.6376Z" fill="#C4C4C4"/>
<path d="M28.3625 25.6554C28.1132 25.4062 27.7092 25.4062 27.46 25.6554L25.6552 27.4603C25.406 27.7095 25.406 28.1135 25.6552 28.3627C25.7799 28.4872 25.9432 28.5496 26.1064 28.5496C26.2696 28.5496 26.433 28.4873 26.5576 28.3627L28.3624 26.5578C28.6117 26.3086 28.6117 25.9046 28.3625 25.6554Z" fill="#C4C4C4"/>
</g>
<defs>
<clipPath id="clip0_1045_2525">
<rect width="40" height="40" fill="white"/>
</clipPath>
</defs>
</svg>
