<svg width="40" height="40" viewBox="0 0 40 40" fill="none" xmlns="http://www.w3.org/2000/svg">
<path d="M34.7783 5.22158C37.2917 7.73491 37.29 11.8282 34.78 14.3416C33.7417 15.3782 32.7233 15.8532 31.5033 16.0916L23.91 8.49825C24.1533 7.27158 24.6283 6.25158 25.6567 5.22325C28.1717 2.70825 32.25 2.69491 34.7783 5.22158ZM23.3 2.86491C20.9733 5.19158 20.5617 7.65825 20.3967 9.69825L30.2983 19.6016C32.3333 19.4449 34.7967 19.0349 37.135 16.7016C40.9533 12.8799 40.9533 6.68658 37.135 2.86658C33.315 -0.955086 27.1233 -0.955086 23.3 2.86491ZM16.0617 20.6882L17.335 21.3549L15.0967 23.5916L18.0567 24.6099L20.9833 21.6816L16.9667 19.7832L16.0617 20.6882ZM30.0617 24.0766L15.9217 9.93325L5.31333 20.5416L8.92667 24.1549L0 35.5649L4.43167 39.9999L15.8433 31.0732L19.4567 34.6849L30.0617 24.0766ZM15.9217 14.6482L25.3483 24.0766L19.4567 29.9699L10.0283 20.5416L15.9217 14.6482ZM4.705 35.5582L4.44 35.2916L11.3 26.5299L13.4683 28.6982L4.705 35.5582Z" fill="#C4C4C4"/>
</svg>
