<svg width="40" height="40" viewBox="0 0 40 40" fill="none" xmlns="http://www.w3.org/2000/svg">
<path d="M21.7511 0C19.4151 0 17.2021 0.524569 15.2267 1.45896C10.0056 3.88509 6.39104 9.16356 6.39104 15.2945V17.3354V17.8271L3.27641 23.7695C2.48956 25.2695 3.23543 26.4989 4.92388 26.4989H6.39104V26.5317V29.1218V32.1462C6.39104 33.9084 7.8336 35.3592 9.60402 35.3592L14.0137 34.7035L14.0219 39.1132V39.1459C14.0465 39.7115 14.5218 40.0885 15.112 39.982L30.9966 37.1706C31.5949 37.0641 32.0867 36.4821 32.0867 35.8756V35.1789V34.6215V26.5399C35.1276 23.7449 37.0373 19.7369 37.0373 15.2781C37.0291 6.83578 30.1851 0 21.7511 0ZM25.087 13.9584C23.5461 16.6305 22.0051 19.3025 20.456 21.9745C20.4478 21.9827 20.4396 21.9909 20.4396 22.0073C20.3331 22.204 20.2101 22.3925 19.9479 22.2942C19.6774 22.1958 19.7429 21.9581 19.7757 21.7532C19.8987 21.0811 20.0216 20.409 20.1528 19.7369C20.3741 18.5566 20.6036 17.3763 20.8249 16.1961C20.8413 16.0977 20.8495 15.9911 20.8659 15.8518C20.7183 15.8436 20.5954 15.8354 20.4724 15.8354C19.6036 15.8354 18.7266 15.8436 17.8578 15.8436C17.3414 15.8436 17.2267 15.6305 17.4807 15.1797C19.0217 12.5077 20.5626 9.83566 22.1117 7.16364C22.1199 7.15544 22.1281 7.14725 22.1281 7.13086C22.2346 6.93414 22.3576 6.74563 22.6199 6.84398C22.8904 6.94234 22.8248 7.18003 22.792 7.38494C22.6691 8.05705 22.5461 8.72915 22.415 9.40125C22.1937 10.5815 21.9642 11.7618 21.7429 12.9421C21.7265 13.0404 21.7183 13.147 21.7019 13.2863C21.8494 13.2945 21.9724 13.3027 22.0953 13.3027C22.9641 13.3027 23.8411 13.2945 24.71 13.2945C25.2263 13.2945 25.3493 13.5076 25.087 13.9584Z" fill="#C4C4C4"/>
</svg>
