<svg width="40" height="40" viewBox="0 0 40 40" fill="none" xmlns="http://www.w3.org/2000/svg">
<path d="M34.5983 34.1633C30.695 28.0583 25.3067 22.5667 25.0267 15H21.6667C21.955 23.6867 27.52 29.2317 31.5883 35.5933C31.8267 36.0967 31.475 36.6667 30.96 36.6667H28.8533L20.9633 25H15.0967C16.5517 22.225 18.18 19.31 18.3233 15H14.9733C14.6917 22.5717 9.27167 28.1067 5.40167 34.1633C5.12667 34.7417 5 35.3417 5 35.925C5 38.0633 6.705 40 9.03833 40H30.96C33.2933 40 35 38.0633 35 35.9233C35 35.34 34.8733 34.7417 34.5983 34.1633ZM26.6667 8.33333C26.6667 10.175 25.1733 11.6667 23.3333 11.6667C21.4933 11.6667 20 10.175 20 8.33333C20 6.49167 21.4933 5 23.3333 5C25.1733 5 26.6667 6.49167 26.6667 8.33333ZM18.3333 5.83333C18.3333 7.215 17.2133 8.33333 15.8333 8.33333C14.4533 8.33333 13.3333 7.215 13.3333 5.83333C13.3333 4.45167 14.4533 3.33333 15.8333 3.33333C17.2133 3.33333 18.3333 4.45167 18.3333 5.83333ZM18.3333 11.6667C18.3333 12.5867 17.5883 13.3333 16.6667 13.3333C15.745 13.3333 15 12.5867 15 11.6667C15 10.7467 15.745 10 16.6667 10C17.5883 10 18.3333 10.7467 18.3333 11.6667ZM23.3333 1.66667C23.3333 2.58667 22.5883 3.33333 21.6667 3.33333C20.745 3.33333 20 2.58667 20 1.66667C20 0.746667 20.745 0 21.6667 0C22.5883 0 23.3333 0.746667 23.3333 1.66667Z" fill="#C4C4C4"/>
</svg>
