<svg width="48" height="40" viewBox="0 0 48 40" fill="none" xmlns="http://www.w3.org/2000/svg">
<path d="M44 5.33337C44 4.22837 42.926 3.33337 41.6 3.33337L6.4 3.33337C5.074 3.33337 4 4.22837 4 5.33337L4 25L44 25V5.33337ZM40 21.6667L8 21.6667L8 6.66671L40 6.66671V21.6667ZM44 26.6667L4 26.6667C3.606 27.2867 0 34.3034 0 34.9967C0 35.8667 0.836 36.6667 2.004 36.6667H45.996C47.164 36.6667 48 35.8667 48 34.9967C48 34.3034 44.394 27.2867 44 26.6667ZM19.542 35L20.476 33.3334H27.522L28.456 35H19.542Z" fill="#C4C4C4"/>
</svg>
