<svg width="40" height="40" viewBox="0 0 40 40" fill="none" xmlns="http://www.w3.org/2000/svg">
<path d="M28.3334 20C22.8117 20 18.3334 24.4783 18.3334 30C18.3334 35.5217 22.8117 40 28.3334 40C33.8551 40 38.3334 35.5217 38.3334 30C38.3334 24.4783 33.8551 20 28.3334 20ZM29.1667 34.1233V35H28.3334V34.1683C27.4701 34.1533 26.5784 33.9483 25.8334 33.5633L26.2134 32.1933C27.0101 32.5033 28.0701 32.8317 28.9001 32.6433C29.8567 32.4267 30.0534 31.4417 28.9951 30.9683C28.2201 30.6067 25.8467 30.2983 25.8467 28.265C25.8467 27.13 26.7134 26.1117 28.3334 25.89V25H29.1667V25.8483C29.7701 25.865 30.4467 25.97 31.2017 26.1983L30.9001 27.5717C30.2601 27.3467 29.5534 27.1433 28.8634 27.185C27.6234 27.2567 27.5134 28.3317 28.3801 28.7817C29.8067 29.4517 31.6667 29.9483 31.6667 31.7367C31.6684 33.1667 30.5467 33.9283 29.1667 34.1233ZM31.8734 17.1583C33.7601 16.7867 35.4767 16.115 36.6667 15.1633V16.25C36.6667 17.0817 36.0234 17.8417 34.9884 18.4633C34.0201 17.9017 32.9751 17.4633 31.8734 17.1583ZM28.3334 7.5C32.7884 7.5 36.6667 5.82167 36.6667 3.75C36.6667 1.67833 32.7884 0 28.3334 0C23.8801 0 20.0001 1.67833 20.0001 3.75C20.0001 5.82167 23.8801 7.5 28.3334 7.5ZM28.4884 4.15167C27.9901 4.00167 26.4651 3.875 26.4651 3.02667C26.4651 2.55333 27.0217 2.13167 28.0617 2.03833V1.66667H28.5967V2.01833C28.9867 2.02667 29.4201 2.06833 29.9034 2.16833L29.7101 2.73833C29.3417 2.65333 28.9317 2.57333 28.5301 2.57333L28.4101 2.575C27.6067 2.60833 27.5417 3.05333 28.0967 3.24C29.0084 3.52167 30.2084 3.72667 30.2084 4.47333C30.2084 5.06833 29.4851 5.38667 28.5967 5.46667V5.83333H28.0617V5.48667C27.5151 5.48167 26.9351 5.39333 26.4584 5.23333L26.7034 4.66167C27.1101 4.76667 27.6234 4.87167 28.0834 4.87167L28.4301 4.84833C29.0451 4.76 29.1684 4.34833 28.4884 4.15167ZM10.0001 25.8333C12.4084 25.8333 14.6251 25.3317 16.1751 24.5533C16.6934 23.4033 17.3651 22.3383 18.1717 21.3883C17.4201 19.65 13.9401 18.3333 10.0001 18.3333C5.54675 18.3333 1.66675 20.0117 1.66675 22.0833C1.66675 24.155 5.54675 25.8333 10.0001 25.8333ZM10.1551 22.485C9.65675 22.335 8.13175 22.2083 8.13175 21.36C8.13175 20.8867 8.69008 20.465 9.72841 20.3717V20H10.2634V20.3517C10.6534 20.36 11.0867 20.4017 11.5701 20.5017L11.3751 21.0717C11.0084 20.9867 10.5984 20.9067 10.1967 20.9067L10.0767 20.9083C9.27341 20.9417 9.21008 21.3867 9.76341 21.5733C10.6751 21.855 11.8751 22.06 11.8751 22.8067C11.8751 23.4017 11.1517 23.72 10.2634 23.8V24.1667H9.72841V23.82C9.18008 23.815 8.60175 23.7267 8.12508 23.5667L8.37008 22.995C8.77675 23.1 9.29008 23.205 9.75008 23.205L10.0967 23.1817C10.7101 23.0933 10.8351 22.6817 10.1551 22.485ZM16.8267 36.7033C15.2951 37.6867 12.7601 38.3333 10.0001 38.3333C5.54675 38.3333 1.66675 36.655 1.66675 34.5833V33.4967C3.57675 35.0267 6.84841 35.8333 10.0001 35.8333C12.0601 35.8333 14.1651 35.4817 15.9151 34.815C16.1701 35.4717 16.4751 36.1033 16.8267 36.7033ZM1.66675 30.4167V29.3317C3.57675 30.86 6.84841 31.6667 10.0001 31.6667C11.7317 31.6667 13.4901 31.415 15.0467 30.9417C15.1017 31.7233 15.2251 32.485 15.4101 33.225C13.9301 33.8033 12.0367 34.1667 10.0001 34.1667C5.54675 34.1667 1.66675 32.4883 1.66675 30.4167ZM1.66675 26.25V25.1633C3.57675 26.6933 6.84841 27.5 10.0001 27.5C11.8784 27.5 13.7917 27.2067 15.4434 26.6517C15.2301 27.4733 15.0934 28.3217 15.0417 29.195C13.6184 29.6917 11.8701 30 10.0001 30C5.54675 30 1.66675 28.3217 1.66675 26.25ZM20.0001 7.91667V6.83C21.9101 8.36 25.1817 9.16667 28.3334 9.16667C31.4867 9.16667 34.7567 8.36 36.6667 6.83V7.91667C36.6667 9.98833 32.7884 11.6667 28.3334 11.6667C23.8801 11.6667 20.0001 9.98833 20.0001 7.91667ZM20.0001 16.25V15.1633C21.1884 16.115 22.9067 16.7867 24.7934 17.1583C23.6917 17.4633 22.6484 17.9017 21.6801 18.4633C20.6434 17.8417 20.0001 17.0817 20.0001 16.25ZM20.0001 12.0833V10.9983C21.9101 12.5267 25.1817 13.3333 28.3334 13.3333C31.4867 13.3333 34.7567 12.5267 36.6667 10.9983V12.0833C36.6667 14.155 32.7884 15.8333 28.3334 15.8333C23.8801 15.8333 20.0001 14.155 20.0001 12.0833Z" fill="#C4C4C4"/>
</svg>
