<?xml version="1.0" encoding="iso-8859-1"?>
<!-- Generator: Adobe Illustrator 19.0.0, SVG Export Plug-In . SVG Version: 6.00 Build 0)  -->
<svg version="1.1" id="Layer_1" xmlns="http://www.w3.org/2000/svg" xmlns:xlink="http://www.w3.org/1999/xlink" x="0px" y="0px"
	 viewBox="0 0 297 297" style="enable-background:new 0 0 297 297;" xml:space="preserve">
<g>
	<g id="XMLID_18_">
		<g>
			<path style="fill:#3498DB;" d="M187.54,115.33v19.73l-39.04,26.02l-39.04-26.02v-19.73l17.25,11.5
				c3.03,2.02,6.93,2.21,10.14,0.49c3.22-1.72,5.22-5.07,5.22-8.72V42.5c0-3.54,2.89-6.42,6.43-6.42s6.42,2.88,6.42,6.42v76.1
				c0,3.65,2.01,7,5.22,8.72c3.22,1.72,7.12,1.53,10.15-0.49L187.54,115.33z"/>
			<path style="fill:#99ABD5;" d="M254.5,215.46c12.54,0,22.74,10.2,22.74,22.73c0,12.54-10.2,22.73-22.74,22.73h-212
				c-12.53,0-22.73-10.19-22.73-22.73c0-12.53,10.2-22.73,22.73-22.73L254.5,215.46L254.5,215.46z M256.23,238.19
				c0-2.6-1.06-5.15-2.9-6.99c-1.83-1.83-4.38-2.89-6.98-2.89c-2.6,0-5.14,1.06-6.99,2.89c-1.84,1.84-2.9,4.39-2.9,6.99
				s1.06,5.15,2.9,6.99c1.85,1.84,4.39,2.9,6.99,2.9s5.15-1.06,6.98-2.9C255.17,243.34,256.23,240.79,256.23,238.19z M223.61,238.19
				c0-2.6-1.04-5.15-2.89-6.99c-1.84-1.83-4.39-2.89-6.99-2.89s-5.15,1.06-6.99,2.89c-1.84,1.84-2.89,4.39-2.89,6.99
				s1.05,5.15,2.89,6.99c1.84,1.84,4.39,2.9,6.99,2.9s5.15-1.06,6.99-2.9C222.57,243.34,223.61,240.79,223.61,238.19z"/>
			<path d="M254.5,195.69c23.44,0,42.5,19.07,42.5,42.5c0,23.44-19.06,42.5-42.5,42.5h-212c-23.43,0-42.5-19.06-42.5-42.5
				c0-23.43,19.07-42.5,42.5-42.5H254.5z M277.24,238.19c0-12.53-10.2-22.73-22.74-22.73h-212c-12.53,0-22.73,10.2-22.73,22.73
				c0,12.54,10.2,22.73,22.73,22.73h212C267.04,260.92,277.24,250.73,277.24,238.19z"/>
			<path d="M253.33,231.2c1.84,1.84,2.9,4.39,2.9,6.99s-1.06,5.15-2.9,6.99c-1.83,1.84-4.38,2.9-6.98,2.9c-2.6,0-5.14-1.06-6.99-2.9
				c-1.84-1.84-2.9-4.39-2.9-6.99s1.06-5.15,2.9-6.99c1.85-1.83,4.39-2.89,6.99-2.89C248.95,228.31,251.5,229.37,253.33,231.2z"/>
			<path d="M220.72,231.2c1.85,1.84,2.89,4.39,2.89,6.99s-1.04,5.15-2.89,6.99c-1.84,1.84-4.39,2.9-6.99,2.9s-5.15-1.06-6.99-2.9
				c-1.84-1.84-2.89-4.39-2.89-6.99s1.05-5.15,2.89-6.99c1.84-1.83,4.39-2.89,6.99-2.89S218.88,229.37,220.72,231.2z"/>
			<path d="M207.3,96.86v43.49c0,3.3-1.65,6.39-4.4,8.22l-48.92,32.62c-1.66,1.1-3.57,1.66-5.48,1.66s-3.82-0.56-5.49-1.66
				l-48.92-32.62c-2.75-1.83-4.4-4.92-4.4-8.22V96.86c0-3.65,2.01-6.99,5.22-8.71c3.21-1.73,7.12-1.54,10.15,0.49l17.25,11.5V42.5
				c0-14.44,11.75-26.19,26.19-26.19s26.19,11.75,26.19,26.19v57.64l17.25-11.5c3.03-2.03,6.93-2.22,10.14-0.49
				C205.3,89.87,207.3,93.22,207.3,96.86z M187.54,135.06v-19.73l-17.25,11.5c-3.03,2.02-6.93,2.21-10.15,0.49
				c-3.21-1.72-5.22-5.07-5.22-8.72V42.5c0-3.54-2.88-6.42-6.42-6.42s-6.43,2.88-6.43,6.42v76.1c0,3.65-2,7-5.22,8.72
				c-3.21,1.72-7.11,1.53-10.14-0.49l-17.25-11.5v19.73l39.04,26.02L187.54,135.06z"/>
		</g>
	</g>
</g>
<g>
</g>
<g>
</g>
<g>
</g>
<g>
</g>
<g>
</g>
<g>
</g>
<g>
</g>
<g>
</g>
<g>
</g>
<g>
</g>
<g>
</g>
<g>
</g>
<g>
</g>
<g>
</g>
<g>
</g>
</svg>
