<svg width="640" height="419" viewBox="0 0 640 419" fill="none" xmlns="http://www.w3.org/2000/svg">
<path opacity="0.1" d="M273.394 17.3511C247.437 8.00339 219.993 0.166947 191.945 0.974579C150.71 2.16604 111.064 23.5483 91.5102 55.1499C74.9819 81.9298 72.7757 113.403 65.5607 143.182C56.6713 179.869 39.7981 214.685 21.7894 248.734C12.1167 267.022 1.91222 285.693 0.230639 305.788C-2.07614 333.687 13.1156 361.579 37.0673 380.274C61.019 398.97 92.89 408.933 124.912 411.26C141.95 412.491 159.758 411.54 174.928 404.711C190.975 397.514 202.71 384.344 218.822 377.227C233.755 370.638 251.16 369.791 267.911 370.758C289.604 371.979 311.09 376.076 331.911 382.961C355.259 390.733 376.955 401.92 400.252 409.805C423.55 417.689 449.593 422.151 473.466 415.81C495.88 409.861 513.659 395.195 529.691 380.338C555.527 356.457 579.551 330.246 601.517 301.974C615.998 283.27 629.486 263.519 635.954 241.665C648.307 199.876 631.757 152.562 594.726 123.783C564.048 99.9296 522.778 89.3983 482.362 83.0013C445.504 77.1079 402.861 76.5242 368.985 61.515C336.676 47.1616 307.284 29.5536 273.394 17.3511Z" fill="#6C63FF"/>
</svg>
