<?xml version="1.0" encoding="iso-8859-1"?>
<!-- Generator: Adobe Illustrator 19.0.0, SVG Export Plug-In . SVG Version: 6.00 Build 0)  -->
<svg version="1.1" id="Capa_1" xmlns="http://www.w3.org/2000/svg" xmlns:xlink="http://www.w3.org/1999/xlink" x="0px" y="0px"
	 viewBox="0 0 490 490" style="enable-background:new 0 0 490 490;" xml:space="preserve">
<g>
	<path d="M489.847,418.713c-1.254-17.791-10.145-34.144-24.403-44.867l-94.279-70.902c16.712-29.104,26.269-62.84,26.269-98.808
		c0-109.749-88.969-198.718-198.718-198.718C88.969,5.418,0,94.387,0,204.136c0,109.749,88.969,198.717,198.717,198.717
		c41.423,0,79.882-12.68,111.718-34.363l68.84,91.536c11.728,15.605,29.669,24.552,49.212,24.556c0,0,0,0,0.01,0
		c16.408,0,31.859-6.406,43.479-18.03C484.591,453.938,491.101,436.5,489.847,418.713z M20.39,204.136
		c0-98.488,79.84-178.328,178.328-178.328c98.488,0,178.328,79.84,178.328,178.328c0,98.487-79.84,178.327-178.328,178.327
		C100.23,382.463,20.39,302.623,20.39,204.136z M457.56,452.136c-7.776,7.776-18.1,12.057-29.062,12.057h-0.01
		c-13.072,0-25.068-5.989-32.924-16.422l-68.581-91.87c12.567-10.632,23.8-22.79,33.402-36.198l92.804,70.443
		c9.537,7.168,15.481,18.1,16.318,29.997C470.343,432.039,465.993,443.703,457.56,452.136z"/>
	<polygon points="207.962,135.435 187.572,135.435 187.572,193.08 129.927,193.08 129.927,213.47 187.572,213.47 187.572,271.121 
		207.962,271.121 207.962,213.47 265.608,213.47 265.608,193.08 207.962,193.08 	"/>
	<path d="M198.717,66.325c-76.111,0-137.811,61.7-137.811,137.811c0,76.111,61.7,137.811,137.811,137.811
		c76.111,0,137.811-61.7,137.811-137.811C336.528,128.025,274.828,66.325,198.717,66.325z M198.717,321.556
		c-64.85,0-117.421-52.571-117.421-117.421c0-64.85,52.571-117.421,117.421-117.421c64.85,0,117.421,52.571,117.421,117.421
		C316.138,268.985,263.567,321.556,198.717,321.556z"/>
</g>
<g>
</g>
<g>
</g>
<g>
</g>
<g>
</g>
<g>
</g>
<g>
</g>
<g>
</g>
<g>
</g>
<g>
</g>
<g>
</g>
<g>
</g>
<g>
</g>
<g>
</g>
<g>
</g>
<g>
</g>
</svg>
