<?xml version="1.0" encoding="iso-8859-1"?>
<!-- Generator: Adobe Illustrator 18.0.0, SVG Export Plug-In . SVG Version: 6.00 Build 0)  -->
<!DOCTYPE svg PUBLIC "-//W3C//DTD SVG 1.1//EN" "http://www.w3.org/Graphics/SVG/1.1/DTD/svg11.dtd">
<svg version="1.1" id="Capa_1" xmlns="http://www.w3.org/2000/svg" xmlns:xlink="http://www.w3.org/1999/xlink" x="0px" y="0px"
	 viewBox="0 0 489.925 489.925" style="enable-background:new 0 0 489.925 489.925;" xml:space="preserve">
<g>
	<g>
		<path d="M208.945,186.776H121.09c-5.522,0-10-4.477-10-10c0-5.523,4.478-10,10-10h87.855c5.523,0,10,4.477,10,10
			C218.945,182.299,214.468,186.776,208.945,186.776z"/>
	</g>
	<g>
		<path d="M165.017,288.55c-61.634,0-111.777-50.143-111.777-111.776S103.384,64.998,165.017,64.998
			c61.634,0,111.777,50.143,111.777,111.776S226.651,288.55,165.017,288.55z M165.017,84.998c-50.607,0-91.777,41.17-91.777,91.776
			s41.171,91.776,91.777,91.776c50.606,0,91.777-41.17,91.777-91.776S215.624,84.998,165.017,84.998z"/>
	</g>
	<g>
		<path d="M164.967,341.868c-41.022,0-80.371-15.18-110.795-42.744C-13.291,238.002-18.45,133.391,42.671,65.929
			c31.233-34.476,75.843-54.249,122.392-54.249c41.023,0,80.373,15.181,110.8,42.748c32.683,29.607,51.879,70.169,54.052,114.214
			c2.172,44.045-12.939,86.298-42.551,118.977C256.13,322.095,211.517,341.868,164.967,341.868z M165.062,31.681
			c-40.913,0-80.12,17.378-107.569,47.677C3.776,138.647,8.31,230.585,67.599,284.302c26.739,24.225,61.317,37.565,97.367,37.565
			c40.915,0,80.125-17.377,107.575-47.677c26.025-28.72,39.306-65.855,37.396-104.563c-1.909-38.708-18.779-74.356-47.503-100.377
			C235.693,45.023,201.112,31.681,165.062,31.681z"/>
	</g>
	<g>
		<path d="M415.762,478.244c-17.758,0.001-35.569-6.323-49.735-19.155c-0.218-0.198-0.428-0.405-0.628-0.622L261.607,346.243
			c-3.75-4.055-3.503-10.382,0.552-14.131c4.056-3.75,10.382-3.503,14.132,0.551L379.768,444.55
			c22.13,19.735,56.198,17.956,76.142-4.054c9.706-10.714,14.66-24.566,13.947-39.006c-0.706-14.299-6.884-27.478-17.407-37.158
			l-123.48-93.446c-4.404-3.333-5.273-9.604-1.939-14.009c3.332-4.402,9.604-5.271,14.008-1.939l123.848,93.724
			c0.235,0.178,0.462,0.366,0.68,0.563c14.673,13.293,23.292,31.504,24.268,51.28c0.976,19.776-5.808,38.748-19.102,53.421
			C456.122,470.048,435.976,478.244,415.762,478.244z"/>
	</g>
</g>
<g>
</g>
<g>
</g>
<g>
</g>
<g>
</g>
<g>
</g>
<g>
</g>
<g>
</g>
<g>
</g>
<g>
</g>
<g>
</g>
<g>
</g>
<g>
</g>
<g>
</g>
<g>
</g>
<g>
</g>
</svg>
